<svg width="106" height="106" viewBox="0 0 106 106" fill="none" xmlns="http://www.w3.org/2000/svg">
<rect x="0.5" y="0.5" width="105" height="105" rx="52.5" fill="#934CFD"/>
<path d="M77.3332 53.0002V83.4168H28.6666V53.0002M52.9999 83.4168V37.7918M52.9999 37.7918H39.3124C37.2957 37.7918 35.3615 36.9907 33.9355 35.5646C32.5094 34.1386 31.7083 32.2044 31.7083 30.1877C31.7083 28.1709 32.5094 26.2368 33.9355 24.8107C35.3615 23.3846 37.2957 22.5835 39.3124 22.5835C49.9583 22.5835 52.9999 37.7918 52.9999 37.7918ZM52.9999 37.7918H66.6874C68.7042 37.7918 70.6383 36.9907 72.0644 35.5646C73.4904 34.1386 74.2916 32.2044 74.2916 30.1877C74.2916 28.1709 73.4904 26.2368 72.0644 24.8107C70.6383 23.3846 68.7042 22.5835 66.6874 22.5835C56.0416 22.5835 52.9999 37.7918 52.9999 37.7918ZM22.5833 37.7918H83.4166V53.0002H22.5833V37.7918Z" stroke="white" stroke-width="2" stroke-linecap="round" stroke-linejoin="round"/>
</svg>
