<svg width="24" height="35" viewBox="0 0 24 35" fill="none" xmlns="http://www.w3.org/2000/svg">
<path d="M7.1205 20.7566C7.1205 19.6981 7.32231 18.6436 7.75955 17.68C8.64986 15.7174 9.97741 14.6233 9.97741 14.6233C9.91212 14.5461 9.72021 14.3523 9.65096 14.2771C9.29088 13.8853 8.91102 13.5154 8.44014 13.2562C8.17305 13.1098 7.90002 12.9752 7.62501 12.8486C7.36386 12.7279 7.09874 12.5993 6.81186 12.5558C6.10159 12.445 5.38539 12.4074 4.66918 12.5024C4.50695 12.5242 4.3368 12.5222 4.18446 12.5736C3.38516 12.8486 2.60564 13.1711 1.96858 13.7508C1.51748 14.1603 1.09014 14.5917 0.795344 15.1357C0.609368 15.48 0.443177 15.8302 0.29677 16.1922C0.162234 16.5226 0.0830956 16.859 0.0811172 17.2151C0.0811172 17.3496 0.063311 17.4802 0 17.6009V28.9296C0.124643 28.9336 0.249287 28.9395 0.37393 28.9395C2.50474 28.9395 4.9897 28.9395 7.1205 28.9395V20.7546V20.7566Z" fill="#9F00D3"/>
<path d="M23.7416 20.1151C23.7337 20.0359 23.7218 19.9568 23.7119 19.8796C23.6941 19.757 23.6783 19.6343 23.6585 19.5176C23.6506 19.4721 23.6427 19.4265 23.6348 19.381C23.611 19.2564 23.5853 19.1357 23.5576 19.015C23.3875 18.279 23.1243 17.5727 22.7484 16.8981C21.9056 15.3885 20.7165 14.237 19.1733 13.4714C17.6539 12.7176 16.0434 12.4505 14.3538 12.6721C12.8719 12.866 11.5444 13.4259 10.3553 14.3221C10.2683 14.3874 10.1832 14.4547 10.0981 14.5259C10.0902 14.5338 10.0823 14.5358 10.0724 14.5417C8.91697 15.527 8.19878 16.7022 7.76154 17.6796C7.32826 18.6451 7.1225 19.6976 7.1225 20.7561V34.6786H23.7476C23.7476 34.6449 23.7476 34.6113 23.7515 34.5777L23.7456 20.1922C23.7456 20.1665 23.7456 20.1388 23.7416 20.1131V20.1151ZM20.8946 31.513C20.8946 31.757 20.7752 31.8797 20.5365 31.881C17.1335 31.881 13.7306 31.881 10.3296 31.881C9.98336 31.881 9.98138 31.881 9.98138 31.5288C9.98138 27.9715 9.98138 24.4162 9.98138 20.859C9.98138 20.5464 10.021 20.2377 10.0427 19.9251C10.0566 19.7154 10.106 19.5096 10.1852 19.3118C10.4305 18.6945 10.6917 18.0871 11.1131 17.5628C11.7976 16.7081 12.6563 16.1007 13.6851 15.7189C14.0729 15.5745 14.4666 15.529 14.8722 15.4874C15.4518 15.4281 16.0236 15.4815 16.5974 15.5428C16.8031 15.5646 16.9911 15.6378 17.181 15.711C17.6697 15.8989 18.1426 16.1245 18.5798 16.4133C18.7757 16.5419 18.9518 16.6943 19.1219 16.8565C19.2505 16.9693 19.3712 17.09 19.4859 17.2166C19.4919 17.2225 19.4978 17.2285 19.5037 17.2364C20.1052 17.8477 20.4435 18.6075 20.7403 19.3909C20.859 19.7075 20.8907 20.0458 20.8926 20.3802C20.8986 21.5415 20.8986 22.7049 20.8986 23.8662C20.8986 24.5528 20.8986 25.2393 20.8986 25.9258C20.8986 27.7895 20.8986 29.6532 20.8986 31.5189L20.8946 31.513Z" fill="#0ACFBD"/>
<path d="M16.2056 0C16.445 0.0732033 16.6943 0.089031 16.9337 0.166191C19.199 0.894267 20.5582 2.4256 20.9203 4.77404C21.1636 6.35682 20.7224 7.79318 19.7015 9.02775C18.744 10.1871 17.5054 10.8559 16.0058 11.0062C14.1381 11.1922 12.5652 10.565 11.299 9.1979C10.5096 8.34518 10.0605 7.31835 9.92197 6.15897C9.79535 5.1084 9.95165 4.10334 10.4008 3.1517C10.9112 2.07146 11.6907 1.22665 12.7472 0.652894C13.319 0.340296 13.9205 0.106837 14.5753 0.0316555C14.605 0.0276985 14.6347 0.0118708 14.6624 0C15.1768 0 15.6932 0 16.2076 0L16.2056 0ZM12.7413 5.48233C12.6483 6.90683 13.9996 8.18888 15.3786 8.20075C16.9099 8.2146 18.1148 6.90881 18.1306 5.53179C18.1465 4.06575 16.8723 2.82327 15.4637 2.80151C13.9897 2.77777 12.6602 4.11521 12.7413 5.48431V5.48233Z" fill="#0ACFBD"/>
<path d="M5.53772 5.79449C5.53772 5.79449 5.55354 5.79449 5.56146 5.79449C6.69512 5.76679 7.44892 6.35439 7.98112 7.29219C8.18688 7.65227 8.25019 8.04202 8.26009 8.45948C8.27196 8.96201 8.15918 9.41706 7.9099 9.84243C7.6527 10.2816 7.30053 10.62 6.86329 10.8831C6.25194 11.2511 5.59707 11.3006 4.92043 11.1819C4.54848 11.1166 4.21016 10.9345 3.91141 10.709C3.43658 10.3489 3.09035 9.882 2.8925 9.3122C2.83909 9.1559 2.80545 8.99762 2.80347 8.83143C2.80347 8.66722 2.80743 8.50301 2.79952 8.34077C2.77182 7.77889 3.00726 7.30208 3.32579 6.87473C3.5454 6.57796 3.81447 6.31284 4.15477 6.13083C4.58805 5.89737 5.02925 5.71733 5.53772 5.79449Z" fill="#9F00D3"/>
</svg>
