<svg width="80" height="80" viewBox="0 0 80 80" fill="none" xmlns="http://www.w3.org/2000/svg">
<path d="M36.6666 69.167C18.7333 69.167 4.16663 54.6003 4.16663 36.667C4.16663 18.7337 18.7333 4.16699 36.6666 4.16699C54.6 4.16699 69.1666 18.7337 69.1666 36.667C69.1666 54.6003 54.6 69.167 36.6666 69.167ZM36.6666 9.16699C21.5 9.16699 9.16663 21.5003 9.16663 36.667C9.16663 51.8337 21.5 64.167 36.6666 64.167C51.8333 64.167 64.1666 51.8337 64.1666 36.667C64.1666 21.5003 51.8333 9.16699 36.6666 9.16699Z" fill="black"/>
<path d="M67.2001 75.9667C66.9334 75.9667 66.6667 75.9333 66.4334 75.9C64.8667 75.7 62.0334 74.6333 60.4334 69.8667C59.6001 67.3667 59.9001 64.8667 61.2667 62.9667C62.6334 61.0667 64.9334 60 67.5667 60C70.9667 60 73.6334 61.3 74.8334 63.6C76.0334 65.9 75.7 68.8333 73.8 71.6667C71.4334 75.2333 68.8667 75.9667 67.2001 75.9667ZM65.2001 68.3C65.7667 70.0333 66.5667 70.9 67.1001 70.9667C67.6334 71.0333 68.6334 70.4 69.6667 68.9C70.6334 67.4667 70.7001 66.4333 70.4667 65.9667C70.2334 65.5 69.3 65 67.5667 65C66.5334 65 65.7667 65.3333 65.3334 65.9C64.9334 66.4667 64.8667 67.3333 65.2001 68.3Z" fill="black"/>
</svg>
